<?xml version="1.0" encoding="UTF-8" standalone="no"?>
<!-- Created with Inkscape (http://www.inkscape.org/) -->

<svg
   width="297mm"
   height="210mm"
   viewBox="0 0 297 210"
   version="1.1"
   id="svg2475"
   xml:space="preserve"
   inkscape:version="1.3.1 (9b9bdc1480, 2023-11-25, custom)"
   sodipodi:docname="fresh-fusion logo.svg"
   inkscape:export-filename="Tumbler.png"
   inkscape:export-xdpi="96"
   inkscape:export-ydpi="96"
   xmlns:inkscape="http://www.inkscape.org/namespaces/inkscape"
   xmlns:sodipodi="http://sodipodi.sourceforge.net/DTD/sodipodi-0.dtd"
   xmlns="http://www.w3.org/2000/svg"
   xmlns:svg="http://www.w3.org/2000/svg"><sodipodi:namedview
     id="namedview2477"
     pagecolor="#ffffff"
     bordercolor="#000000"
     borderopacity="0.25"
     inkscape:showpageshadow="2"
     inkscape:pageopacity="0.0"
     inkscape:pagecheckerboard="0"
     inkscape:deskcolor="#d1d1d1"
     inkscape:document-units="mm"
     showgrid="false"
     inkscape:zoom="0.5946522"
     inkscape:cx="779.44721"
     inkscape:cy="466.65933"
     inkscape:window-width="1366"
     inkscape:window-height="654"
     inkscape:window-x="0"
     inkscape:window-y="0"
     inkscape:window-maximized="1"
     inkscape:current-layer="layer4" /><defs
     id="defs2472" /><g
     inkscape:label="Tumbler"
     inkscape:groupmode="layer"
     id="layer1"><g
       id="g5409"
       inkscape:label="Half an Orange"
       transform="translate(0,-36.229421)"><ellipse
         style="fill:#ff7f2a;stroke-width:0.276391"
         id="path2470"
         cx="172.15724"
         cy="155.40686"
         rx="17.742155"
         ry="21.679188" /><ellipse
         style="fill:#ff6600;stroke-width:0.264583"
         id="path5248"
         cx="169.30193"
         cy="154.99353"
         rx="18.630474"
         ry="19.987013" /><ellipse
         style="fill:#000000;stroke-width:0.264583"
         id="path5305"
         cx="170.35867"
         cy="153.58311"
         rx="1.5394679"
         ry="1.4351856" /><ellipse
         style="fill:#000000;stroke-width:0.264583"
         id="path5377"
         cx="179.3239"
         cy="143.04886"
         rx="0.30937091"
         ry="0.56877321" /><ellipse
         style="fill:#000000;stroke-width:0.264583"
         id="path5379"
         cx="175.93646"
         cy="146.96553"
         rx="0.38497561"
         ry="0.513156" /><ellipse
         style="fill:#000000;stroke-width:0.264583"
         id="path5381"
         cx="183.79543"
         cy="153.34196"
         rx="0.64263988"
         ry="0.78472453" /><ellipse
         style="fill:#000000;stroke-width:0.264583"
         id="path5383"
         cx="176.31754"
         cy="154.71198"
         rx="0.33587602"
         ry="0.40279052" /><ellipse
         style="fill:#000000;stroke-width:0.264583"
         id="path5385"
         cx="182.84821"
         cy="157.67097"
         rx="0.69217396"
         ry="0.35325637" /><ellipse
         style="fill:#000000;stroke-width:0.264583"
         id="path5387"
         cx="180.67218"
         cy="166.06093"
         rx="0.47057402"
         ry="0.69173944" /><ellipse
         style="fill:#000000;stroke-width:0.264583"
         id="path5389"
         cx="176.2254"
         cy="161.06145"
         rx="0.48708537"
         ry="0.71867907" /><ellipse
         style="fill:#000000;stroke-width:0.264583"
         id="path5391"
         cx="172.28831"
         cy="168.95694"
         rx="0.53966105"
         ry="0.93289238" /><ellipse
         style="fill:#000000;stroke-width:0.264583"
         id="path5393"
         cx="170.54681"
         cy="161.58809"
         rx="0.87075746"
         ry="0.72128618" /><ellipse
         style="fill:#000000;stroke-width:0.264583"
         id="path5395"
         cx="168.83049"
         cy="171.87422"
         rx="0.71346492"
         ry="0.56095201" /></g><path
       style="fill:#04e762;fill-opacity:1;stroke-width:0.266565"
       d="m 140.10389,142.14276 -7.82655,-0.34227 -6.2061,-0.6065 -1.99656,-0.41356 -2.59845,-0.62616 c 0,0 -2.32027,-0.56042 -2.46498,-5.63548 0.0337,-0.27898 -6.97952,-49.787181 -6.97952,-49.787181 l -3.28705,0.007 c 0,0 -3.70995,-2.29942 -0.37861,-5.42164 0.54327,-0.1143 2.70574,-0.62555 2.70574,-0.62555 l 25.70823,-0.27775 37.43745,0.24948 c 0,0 2.67331,-0.0639 2.7363,0.87749 0.078,-1.01329 3.34132,3.71459 -0.29565,5.34422 0.49337,-0.33367 -3.35565,-0.1229 -3.35565,-0.1229 l -4.31683,34.676871 -2.7101,15.83786 c 0,0 -0.35865,5.20964 -4.58628,5.48985 -0.10291,-0.13273 -4.28253,0.65627 -4.28253,0.65627 l -11.93692,0.56349 z"
       id="path4860" /><path
       style="fill:#ffffff;stroke-width:0.264583"
       d="m 118.76889,86.644709 6.83918,46.757591 c 0,0 0.90725,3.99576 5.36098,4.17564 -0.12166,0.10428 28.13885,-1.58857 28.13885,-1.58857 0,0 3.49606,-0.83338 2.94771,-10.53251 0.45797,0.37194 4.31208,-38.862551 4.31208,-38.862551 z"
       id="path4920" /><path
       style="fill:#ff6600;stroke-width:0.264583"
       d="m 120.74504,98.344319 c 0,0 13.4698,7.605661 20.15603,3.025931 0.74997,-0.2555 6.34384,-5.394881 14.06943,-3.878431 0.0391,-0.23985 7.84464,9.057781 9.66871,5.600821 0.48578,-0.2468 -3.11805,29.53102 -3.11805,29.53102 0,0 -0.76647,4.69532 -6.79138,3.53778 0.21725,0.0991 -24.46811,1.43041 -24.46811,1.43041 0,0 -5.38532,0.45884 -6.04664,-13.48719 -0.28069,-0.0669 -3.46999,-25.760341 -3.46999,-25.760341 z"
       id="path4922" /><path
       style="fill:#04e762;fill-opacity:1;stroke-width:0.264583"
       d="m 119.91425,73.722389 c 0,0 1.16188,-4.63448 12.31401,-7.26152 -0.31459,0.16511 -0.0947,-0.96896 -0.0947,-0.96896 0,0 -9.91724,0.86641 -13.63839,7.56221 0.0826,-0.45624 1.41911,0.66827 1.41911,0.66827 z"
       id="path5246" /><path
       style="fill:#000000;stroke-width:0.264583"
       d="m 170.41558,115.99237 3.78719,-16.323661 2.16559,0.869891 z"
       id="path5317" /><path
       style="fill:#000000;stroke-width:0.264583"
       d="m 171.8399,116.68845 14.21368,-6.23956 0.63265,2.02656 z"
       id="path5319" /><path
       style="fill:#000000;stroke-width:0.264583"
       d="m 171.70868,118.19881 14.65514,7.99063 -1.00371,2.0926 z"
       id="path5321" /><path
       style="fill:#000000;stroke-width:0.264583"
       d="m 170.48163,118.79669 8.87963,16.52788 -2.13257,1.30962 z"
       id="path5323" /></g><g
     inkscape:groupmode="layer"
     id="layer3"
     inkscape:label="Lid"><g
       id="g4891"
       transform="translate(0,-36.229421)"><path
         style="fill:#04e762;fill-opacity:1;stroke-width:0.264583"
         d="m 109.87447,114.87829 2.79042,-6.3282 c 0,0 4.93864,-8.40603 23.04379,-12.16193 -0.24593,0.367593 5.88674,-0.372809 5.88674,-0.372809 l -0.51881,1.34611 -2.27161,0.554434 c 0,0 -12.87887,1.809298 -13.28905,3.250135 0.24333,-0.7013 -13.80785,8.03582 -13.33684,13.51846 -0.006,-0.85424 0.11297,0.6257 0.11297,0.6257 z"
         id="path4884" /><path
         style="fill:#04e762;fill-opacity:1;stroke-width:0.264583"
         d="m 176.92975,115.14594 c 0,0 -0.763,-6.15092 -9.32023,-12.77371 0.32849,-0.18337 -15.95259,-6.926088 -21.66292,-6.098781 0.74562,0.172064 0.27722,1.39999 0.27722,1.39999 h 1.82841 l 2.93034,0.302419 c 0,0 16.72167,4.756142 20.20644,10.751512 -0.053,-0.71347 3.38222,5.97711 3.38222,5.97711 z"
         id="path4886" /></g><path
       style="fill:#04e762;fill-opacity:1;stroke-width:0.264583"
       d="m 145.21923,62.414714 0.13644,1.869255 5.4305,-1.819723 -2.40545,-1.568579 z"
       id="path4898" /><path
       style="fill:#04e762;fill-opacity:1;stroke-width:0.264583"
       d="m 140.5552,62.477282 -2.31941,-0.879448 -2.13344,0.597016 2.6731,1.414764 1.57988,0.457975 z"
       id="path4914" /><path
       style="display:inline;fill:#04e762;fill-opacity:1;stroke-width:0.264583"
       d="m 137.38937,78.430739 9.70434,-40.958621 c 0,0 2.1317,-6.897407 11.48322,-5.994498 -1.23835,-0.198136 -1.91358,1.07324 -1.91358,1.07324 0,0 -4.98209,-0.358037 -7.66215,5.60865 -0.39019,0.05909 -9.88509,40.483269 -9.88509,40.483269 z"
       id="path4916" /><path
       style="fill:#04e762;fill-opacity:1;stroke-width:0.264583"
       d="m 140.81504,77.947569 8.85618,-38.513206 c 0,0 4.24689,-5.283639 6.92869,-4.92647 -0.3337,-0.0026 -0.55183,1.424321 -0.55183,1.424321 0,0 -4.48153,1.863177 -4.44243,4.205186 -0.12774,-0.986337 -9.36455,38.624439 -9.36455,38.624439 z"
       id="path4918" /></g><g
     inkscape:groupmode="layer"
     id="layer4"
     inkscape:label="Name"><text
       xml:space="preserve"
       style="font-style:normal;font-variant:normal;font-weight:normal;font-stretch:normal;font-size:22.8534px;font-family:'Liberation Serif';-inkscape-font-specification:'Liberation Serif, Normal';font-variant-ligatures:normal;font-variant-caps:normal;font-variant-numeric:normal;font-variant-east-asian:normal;fill:#ff7f2a;stroke-width:0.244858"
       x="83.520378"
       y="156.88135"
       id="text2657"
       transform="scale(0.92544657,1.0805594)"><tspan
         sodipodi:role="line"
         id="tspan2655"
         style="font-style:normal;font-variant:normal;font-weight:bold;font-stretch:normal;font-size:22.8534px;font-family:'Liberation Sans';-inkscape-font-specification:'Liberation Sans, Bold';font-variant-ligatures:normal;font-variant-caps:normal;font-variant-numeric:normal;font-variant-east-asian:normal;stroke-width:0.244858"
         x="83.520378"
         y="156.88135"><tspan
   style="fill:#ff6701;fill-opacity:1"
   id="tspan2">FRESH</tspan>  <tspan
   style="fill:#00b810;fill-opacity:1"
   id="tspan1">FUSION</tspan></tspan></text><path
       style="display:inline;fill:#ffcc00;stroke-width:0.264583"
       d="m 171.80175,97.545606 -0.0485,-1.011759 0.80436,-0.859054 1.11438,-1.681859 1.24895,-1.132504 1.04586,-0.831098 1.41793,-1.10516 2.0398,-1.378606 3.47986,-1.483685 2.92712,-0.509413 2.40419,-0.01106 2.86843,0.251635 2.13904,0.63876 0.57701,0.01966 0.70973,-0.372686 1.36171,0.03011 1.00039,0.390509 0.36685,0.453493 0.59667,0.148707 0.41939,0.193871 0.002,0.463325 2.50097,0.532455 0.75306,-0.07712 0.52815,0.404948 0.82649,0.247332 1.66988,0.250404 1.63638,0.674095 1.86928,0.803444 2.31786,1.629627 1.68646,1.631471 c 0,0 7.15112,7.337002 4.61943,15.801292 0.003,0.25009 -1.51195,4.63233 -5.83581,8.35859 0.006,-0.30233 0.25102,-1.55558 0.25102,-1.55558 l -2.19219,-2.88349 c 0,0 -3.45681,13.7406 -14.33942,19.48239 0.31431,-0.008 -7.21503,3.87958 -11.97886,1.72764 -0.0157,-0.0338 1.31593,-1.23605 1.31593,-1.23605 0,0 6.77567,-8.45199 5.96884,-15.02212 0.19387,-0.086 -0.0135,-12.54173 -6.23031,-17.9053 -0.0842,-0.14502 -7.31242,-6.287764 -11.84275,-5.077218 z"
       id="path322" /><path
       style="fill:#008000;stroke-width:0.264583"
       d="m 210.81477,119.93545 0.29158,-1.19456 -4.98813,-7.15051 c 0,0 -4.51434,-7.16618 -4.35089,-8.82192 -0.006,0.13427 -2.02105,-10.525284 -1.46678,-11.819094 -0.1653,-0.0052 -2.58455,-0.573624 -2.58455,-0.573624 l -0.17451,0.525695 -2.90316,-0.832019 -0.80467,-0.475615 0.0971,-0.804366 0.60896,-0.716187 1.23205,0.03748 1.28059,0.731242 0.24857,0.0977 0.47807,0.07343 0.37883,0.593905 2.4555,0.470392 0.89408,0.183425 0.47931,0.353944 1.3362,0.393274 c 0,0 7.58403,1.183507 12.28027,9.467128 -0.0246,-0.39604 6.57565,10.1314 -4.78841,19.46027 z"
       id="path324" /><path
       style="fill:#668000;fill-opacity:1;stroke-width:0.264583"
       d="m 210.9649,119.78912 0.68739,-2.40197 c 0,0 -0.74605,-22.297306 -10.61898,-26.443396 0.25419,0.162941 0.8625,-0.24376 0.8625,-0.24376 l 2.32158,1.896634 c 0,0 8.03974,7.464872 7.98195,25.458792 0.35717,-0.23985 -1.23444,1.7337 -1.23444,1.7337 z"
       id="path33209" /></g></svg>
